<svg xmlns="http://www.w3.org/2000/svg" viewBox="0 0 32 32" fill="none">
  <rect width="32" height="32" rx="8" fill="url(#g)"/>
  <path d="M10 16.5C10 13.46 12.46 11 15.5 11c1.63 0 3.08.72 4.08 1.86l-1.7 1.48A3 3 0 0 0 15.5 13a3.5 3.5 0 0 0 0 7c.85 0 1.62-.3 2.22-.8L19.5 21A5.5 5.5 0 0 1 15.5 22C12.46 22 10 19.54 10 16.5Z" fill="white"/>
  <circle cx="21" cy="11.5" r="2" fill="white" opacity="0.9"/>
  <defs>
    <linearGradient id="g" x1="0" y1="0" x2="32" y2="32" gradientUnits="userSpaceOnUse">
      <stop stop-color="#f97316"/>
      <stop offset="1" stop-color="#f59e0b"/>
    </linearGradient>
  </defs>
</svg>